<svg width="40" height="40" viewBox="0 0 40 40" fill="none" xmlns="http://www.w3.org/2000/svg">
<rect width="40" height="40" rx="20" fill="#262E38"/>
<path d="M20.5777 13.6916L22.2359 17.0511C22.3296 17.2409 22.5106 17.3724 22.7201 17.4028L26.4274 17.9416C26.6697 17.9768 26.871 18.1465 26.9466 18.3793C27.0222 18.6122 26.959 18.8677 26.7836 19.0385L24.1005 21.6535C23.9488 21.8014 23.88 22.0142 23.9154 22.2225L24.5487 25.9151C24.59 26.1563 24.4908 26.4001 24.2928 26.5439C24.0948 26.6877 23.8323 26.7067 23.6157 26.5928L20.2993 24.849C20.1119 24.7507 19.8881 24.7507 19.7007 24.849L16.3843 26.5928C16.1677 26.7067 15.9052 26.6877 15.7072 26.5439C15.5092 26.4001 15.41 26.1563 15.4513 25.9151L16.0846 22.2225C16.1204 22.0139 16.0512 21.8011 15.8995 21.6535L13.2164 19.0385C13.041 18.8677 12.9778 18.6122 13.0534 18.3793C13.129 18.1465 13.3303 17.9768 13.5726 17.9416L17.2799 17.4028C17.4893 17.3724 17.6704 17.2409 17.7641 17.0511L19.4223 13.6916C19.6602 13.2139 20.3417 13.2139 20.5777 13.6916Z" fill="#FC7614"/>
</svg>
